PathFileType	4	(X/Y/Z)	./resultDataOpenSim/trcMotMarkerGrf/sub09/qtm-12-06.trc
DataRate	CameraRate	NumFrames	NumMarkers	Units	OrigDataRate	OrigDataStartFrame	OrigNumFrames
250.000000	250.000000	6	24	m	250.000000	301	480
Frame#	Time	L.Toe.Tip			R.Toe.Tip			L.Ankle.Lat			R.Ankle.Lat			L.Ankle.Med			R.Ankle.Med			L.Heel			R.Heel			L.Knee.Lat			R.Knee.Lat			L.Knee.Med			R.Knee.Med			L.Thigh.Upper			R.Thigh.Upper			L.ASIS			R.ASIS			V.Sacral			L.Acromium			R.Acromium			C7			L.Elbow			R.Elbow			L.Wrist.Lat			R.Wrist.Lat
		X1	Y1	Z1	X2	Y2	Z2	X3	Y3	Z3	X4	Y4	Z4	X5	Y5	Z5	X6	Y6	Z6	X7	Y7	Z7	X8	Y8	Z8	X9	Y9	Z9	X10	Y10	Z10	X11	Y11	Z11	X12	Y12	Z12	X13	Y13	Z13	X14	Y14	Z14	X15	Y15	Z15	X16	Y16	Z16	X17	Y17	Z17	X18	Y18	Z18	X19	Y19	Z19	X20	Y20	Z20	X21	Y21	Z21	X22	Y22	Z22	X23	Y23	Z23	X24	Y24	Z24

301	1.2	0.17534398	0.015724606	-0.0088064424	1.0271758	0.052955338	0.07558964	0.081888302	0.12600061	-0.077587588	0.87871384	0.051929955	0.107301	0.10743084	0.13677401	0.017205091	0.88366532	0.095564115	0.017634754	0.0046931461	0.1414373	-0.036712455	0.81418325	0.028712373	0.054514052	0.36572992	0.44077706	-0.1172489	0.78095751	0.50158269	0.16580534	0.36803795	0.43548447	0.0085574752	0.77035339	0.48162757	0.040367643	0.51534433	0.82853514	-0.1478524	0.56397448	0.8353419	0.22073977	0.61858413	0.90169223	-0.10388409	0.63430708	0.92039867	0.13771283	0.46279124	0.96999548	0.029632738	0.63584603	1.3579803	-0.14431755	0.59621558	1.3798644	0.18509849	0.54980133	1.4213484	0.012452323	0.50795416	1.0026235	-0.20694268	0.42853337	1.0615132	0.26742245	0.71467966	0.82893668	-0.1891706	0.52336959	0.81123022	0.31700298
302	1.204	0.17592873	0.015909937	-0.0093210065	1.0286879	0.048896139	0.074013166	0.085998004	0.1288302	-0.079382757	0.88026541	0.051479671	0.10725684	0.11226569	0.13902989	0.015116722	0.88519166	0.095021127	0.017480222	0.0096064886	0.14621279	-0.038151629	0.81473683	0.029371999	0.055126366	0.37478415	0.43975387	-0.11808938	0.79087989	0.5039736	0.1654238	0.37697537	0.43397208	0.0078281096	0.77767764	0.4831032	0.040636118	0.52126988	0.82763861	-0.14805534	0.57155914	0.83625986	0.22115062	0.62605762	0.90089867	-0.10322024	0.64149751	0.92100436	0.13814788	0.47010786	0.96953078	0.029590264	0.64279829	1.3577228	-0.14426111	0.60343308	1.3795587	0.18528604	0.55681348	1.421011	0.012579365	0.51453671	1.0025133	-0.20665544	0.43575985	1.0613872	0.26739906	0.72014553	0.82766248	-0.18937702	0.5310946	0.81071561	0.31686236
303	1.208	0.17669051	0.016242887	-0.0098062603	1.0299816	0.046079266	0.072412886	0.090320698	0.13180121	-0.081090797	0.88153076	0.051208353	0.10686488	0.11749007	0.1413884	0.013051132	0.8863179	0.094433307	0.016897878	0.014891281	0.15118628	-0.039460598	0.81528078	0.029827211	0.05545889	0.38415032	0.43864916	-0.11908818	0.80058201	0.50584982	0.16513593	0.385992	0.43244462	0.0068683884	0.78507152	0.48457315	0.04074967	0.52576055	0.82674877	-0.14763049	0.57901417	0.83724111	0.22163829	0.63349671	0.9001913	-0.10250588	0.64867631	0.92171203	0.13858741	0.47737785	0.96908543	0.029572405	0.64980109	1.3575443	-0.14419675	0.61063443	1.3793328	0.18542282	0.56377373	1.4206857	0.01270427	0.52113575	1.0025234	-0.20635966	0.44273043	1.0614647	0.26722912	0.72554847	0.8264336	-0.1896126	0.53885272	0.81028248	0.31669899
304	1.212	0.17769361	0.016768296	-0.010276232	1.0311283	0.044388717	0.071028226	0.094907537	0.13494038	-0.082700796	0.88263553	0.051180152	0.1062477	0.123068	0.14387541	0.011056724	0.88718526	0.093843319	0.01602427	0.020533369	0.15632321	-0.040675112	0.81588488	0.030155492	0.055506169	0.39378976	0.43745665	-0.12020697	0.80988916	0.50714515	0.16486803	0.39534752	0.43083461	0.0056442815	0.79251096	0.48597712	0.04067828	0.53144599	0.82571214	-0.14670107	0.58635596	0.83824376	0.22218307	0.64088997	0.89957077	-0.10174581	0.65581912	0.92250484	0.13903257	0.48459651	0.96869247	0.029607689	0.65688536	1.3574331	-0.14415802	0.61780742	1.3791823	0.18551611	0.57069588	1.4204144	0.01282682	0.5277325	1.0026654	-0.20606651	0.44962024	1.0615357	0.26696124	0.73090291	0.82524553	-0.18986049	0.54664963	0.80992836	0.31651632
305	1.216	0.17895497	0.01749968	-0.010756306	1.0321297	0.043379726	0.069945275	0.099795806	0.13824284	-0.084223737	0.88357638	0.051392692	0.10560688	0.12893254	0.1465001	0.0091648284	0.88789681	0.093320725	0.01509724	0.026503486	0.16159041	-0.041842232	0.81649563	0.030414023	0.055411899	0.40373426	0.43618956	-0.12142466	0.81872815	0.50795123	0.16451795	0.40523523	0.4290368	0.0042732152	0.79999525	0.48730499	0.040428423	0.53869226	0.82463301	-0.14584863	0.59358607	0.83923699	0.22275867	0.64819446	0.89902765	-0.10092002	0.66291059	0.92337074	0.13948859	0.49174678	0.96838388	0.02969262	0.66407144	1.3573685	-0.14417205	0.62495816	1.3790967	0.18558273	0.57759916	1.4202266	0.012945502	0.53431288	1.0029326	-0.20578242	0.45664029	1.0614753	0.26669138	0.73621697	0.82407431	-0.19010136	0.55449192	0.80963489	0.31632206
306	1.22	0.18045744	0.018430746	-0.011277873	1.0329767	0.042648011	0.069055355	0.10499967	0.14169383	-0.085667341	0.88432756	0.051740434	0.1050964	0.13502011	0.14927379	0.0073940632	0.88847124	0.092908463	0.014314216	0.032785384	0.16699309	-0.043008807	0.81700475	0.030620631	0.055381924	0.41396602	0.43488735	-0.12271152	0.82706449	0.50843839	0.1639883	0.4156056	0.42699967	0.0029266105	0.80752218	0.48859122	0.040036967	0.54662107	0.8236251	-0.1453459	0.60070351	0.8402091	0.22334855	0.65537345	0.8985629	-0.10002228	0.66994677	0.9243028	0.13995986	0.49879811	0.96817992	0.029796024	0.67132145	1.357346	-0.14422172	0.63209064	1.3790741	0.18563641	0.58449746	1.4201276	0.013054098	0.54087561	1.0033037	-0.2055085	0.46390192	1.0613151	0.26649133	0.74148799	0.82290924	-0.1903264	0.56237574	0.80938912	0.31612123
